<svg width="100.000000" height="100.000000" viewBox="0 0 100 100" fill="none" xmlns="http://www.w3.org/2000/svg" xmlns:xlink="http://www.w3.org/1999/xlink">
	<desc>
			Created with Pixso.
	</desc>
	<defs/>
	<rect id="Прямоугольник 2" rx="50.000000" width="100.000000" height="100.000000" fill="#000028" fill-opacity="1.000000"/>
	<path id="Пересечение" d="M64.8531 66.6406L53.7125 66.6406L53.7125 71L81.7437 71L81.7437 66.6406L69.9625 66.6406L69.9625 42.3281L83.2125 42.3281L83.2125 37.9688L69.9625 37.9688L69.9625 27.9844L83.2125 27.9844L83.2125 23.6406L72.15 23.6406Q68.7644 23.6406 66.9947 25.3317Q66.7879 25.5293 66.6031 25.75Q66.4139 25.978 66.2452 26.2203Q64.8531 28.2192 64.8531 31.1875L64.8531 37.9688L53.0719 37.9688L53.0719 42.3281L64.8531 42.3281L64.8531 66.6406ZM16.2656 37.9688L16.2656 71L21.3906 71L21.3906 48.0938Q21.3906 46.498 22.0818 45.3018Q22.0878 45.2915 22.0938 45.2812Q22.4938 44.5878 23.0405 44.0411Q23.4547 43.6268 23.9531 43.2969Q25.1094 42.5156 26.5781 42.1406Q27.1487 41.9889 27.7286 41.8961Q28.6417 41.75 29.5781 41.75Q32.8563 41.75 34.782 43.3638Q35.1142 43.6422 35.4062 43.9688Q37.3906 46.1719 37.3906 50.7188L37.3906 71L42.5156 71L42.5156 49.8125Q42.5156 44.1107 39.6941 40.8513Q39.5388 40.672 39.375 40.5Q38.4346 39.5128 37.3121 38.8213Q34.6858 37.2031 31.0625 37.2031Q29.0156 37.2031 27.4688 37.7188Q25.9375 38.2344 24.8125 39.0625Q24.143 39.5623 23.593 40.1702Q23.2316 40.5696 22.9219 41.0156Q22.1562 42.1406 21.6406 43.3594L21.3906 43.3594L21.3906 37.9688L16.2656 37.9688Z" clip-rule="evenodd" fill="#FF0070" fill-opacity="1.000000" fill-rule="evenodd"/>
</svg>
